<svg width="836" height="193" viewBox="0 0 836 193" fill="none" xmlns="http://www.w3.org/2000/svg">
<path d="M73.4117 137.294L157.697 15.8097C162.33 9.13207 157.551 0 149.424 0H10.0696C4.50832 0 0 4.50832 0 10.0696V51.4233C0 57.9099 2.10244 64.2218 5.99214 69.4128L57.08 137.592C61.2 143.09 69.4951 142.939 73.4117 137.294Z" fill="#005EFF"/>
<path d="M193.001 182.932V62.5558C193.001 52.8058 180.529 48.7469 174.791 56.6297L87.1662 177.005C82.3217 183.661 87.0756 193.001 95.3073 193.001H182.932C188.493 193.001 193.001 188.493 193.001 182.932Z" fill="#00D4D4"/>
<path d="M19.0858 146.008L41.4028 177.054C46.1915 183.715 41.4307 193.001 33.2265 193.001H10.9095C5.34817 193.001 0.839844 188.493 0.839844 182.931V151.885C0.839844 142.105 13.377 138.066 19.0858 146.008Z" fill="#00FFA8"/>
<path d="M284.468 83.5391C271.777 83.5391 262.089 80.3098 255.405 73.8514C248.796 67.3178 245.492 58.2684 245.492 46.7033C245.492 34.6124 248.721 25.2626 255.18 18.654C261.713 12.0453 271.439 8.74096 284.356 8.74096C288.786 8.74096 292.729 9.07891 296.184 9.75479C299.713 10.4307 303.093 11.3319 306.322 12.4583V28.3417C299.788 25.6381 292.917 24.2864 285.707 24.2864C278.197 24.2864 272.678 26.0887 269.148 29.6934C265.694 33.2982 263.966 38.9681 263.966 46.7033C263.966 54.0629 265.806 59.47 269.486 62.9245C273.166 66.3791 278.648 68.1063 285.933 68.1063C289.462 68.1063 292.954 67.8059 296.409 67.2052C299.863 66.5293 303.205 65.5154 306.435 64.1637V80.1596C303.28 81.211 299.938 82.0371 296.409 82.6379C292.879 83.2387 288.899 83.5391 284.468 83.5391ZM332.292 83.5391C328.912 83.5391 325.758 82.9383 322.829 81.7367C319.975 80.5351 317.685 78.6952 315.958 76.217C314.23 73.6636 313.367 70.5095 313.367 66.7546C313.367 61.2724 315.207 56.9918 318.886 53.9127C322.641 50.7586 328.236 49.1815 335.671 49.1815H350.541V47.9424C350.541 45.2388 349.639 43.3238 347.837 42.1973C346.035 40.9958 342.655 40.395 337.699 40.395C331.616 40.395 325.645 41.3337 319.788 43.2112V31.4958C322.416 30.4444 325.608 29.5808 329.363 28.9049C333.193 28.229 337.211 27.8911 341.416 27.8911C349.677 27.8911 356.135 29.5808 360.791 32.9602C365.523 36.3397 367.888 41.7092 367.888 49.0689V82.4126H352.005L351.104 77.9067C349.151 79.7091 346.635 81.0984 343.556 82.0747C340.552 83.0509 336.797 83.5391 332.292 83.5391ZM338.037 72.3869C340.89 72.3869 343.369 71.8988 345.471 70.9225C347.574 69.9462 349.264 68.7071 350.541 67.2052V59.6578H337.699C332.367 59.6578 329.701 61.7981 329.701 66.0787C329.701 68.0312 330.377 69.5708 331.728 70.6972C333.08 71.8237 335.183 72.3869 338.037 72.3869ZM378.764 82.4126V29.0176H395.999L396.562 33.9741C398.89 32.5472 401.782 31.2705 405.236 30.144C408.691 28.9425 412.145 28.1915 415.6 27.8911V41.5215C413.647 41.7468 411.469 42.1223 409.066 42.6479C406.738 43.0985 404.485 43.6618 402.307 44.3377C400.205 45.0135 398.402 45.727 396.9 46.478V82.4126H378.764ZM444.403 83.5391C437.795 83.5391 432.913 81.8494 429.759 78.4699C426.68 75.0905 425.141 70.4344 425.141 64.5016V42.7606H417.931V29.0176H425.141V17.8654L443.277 13.0216V29.0176H456.231L455.443 42.7606H443.277V63.2625C443.277 65.8158 443.915 67.6182 445.192 68.6696C446.469 69.6459 448.384 70.134 450.937 70.134C453.115 70.134 455.33 69.7585 457.583 69.0075V81.2861C454.054 82.7881 449.66 83.5391 444.403 83.5391ZM484.171 23.6105L493.633 1.53151H508.503L498.139 23.6105H484.171ZM492.394 83.5391C482.105 83.5391 474.521 81.1735 469.639 76.4423C464.758 71.636 462.317 64.7269 462.317 55.7151C462.317 46.7784 464.758 39.9068 469.639 35.1005C474.596 30.2942 482.181 27.8911 492.394 27.8911C502.682 27.8911 510.267 30.2942 515.149 35.1005C520.105 39.9068 522.584 46.7784 522.584 55.7151C522.584 64.7269 520.143 71.636 515.261 76.4423C510.38 81.1735 502.758 83.5391 492.394 83.5391ZM492.394 69.3455C496.599 69.3455 499.603 68.2941 501.406 66.1913C503.208 64.0886 504.109 60.5965 504.109 55.7151C504.109 50.8337 503.208 47.3416 501.406 45.2388C499.603 43.1361 496.599 42.0847 492.394 42.0847C488.264 42.0847 485.297 43.1361 483.495 45.2388C481.692 47.3416 480.791 50.8337 480.791 55.7151C480.791 60.5965 481.692 64.0886 483.495 66.1913C485.297 68.2941 488.264 69.3455 492.394 69.3455ZM531.785 82.4126V29.0176H549.02L549.583 33.9741C551.911 32.5472 554.802 31.2705 558.257 30.144C561.711 28.9425 565.166 28.1915 568.62 27.8911V41.5215C566.668 41.7468 564.49 42.1223 562.087 42.6479C559.759 43.0985 557.506 43.6618 555.328 44.3377C553.225 45.0135 551.423 45.727 549.921 46.478V82.4126H531.785ZM579.062 20.569V6.9386H598.776V20.569H579.062ZM580.527 82.4126V42.4226H572.641L574.218 29.0176H598.663V82.4126H580.527ZM638.044 83.5391C627.755 83.5391 620.171 81.1735 615.289 76.4423C610.408 71.636 607.967 64.7269 607.967 55.7151C607.967 46.7784 610.408 39.9068 615.289 35.1005C620.246 30.2942 627.831 27.8911 638.044 27.8911C648.332 27.8911 655.917 30.2942 660.799 35.1005C665.755 39.9068 668.234 46.7784 668.234 55.7151C668.234 64.7269 665.793 71.636 660.911 76.4423C656.03 81.1735 648.408 83.5391 638.044 83.5391ZM638.044 69.3455C642.249 69.3455 645.253 68.2941 647.056 66.1913C648.858 64.0886 649.759 60.5965 649.759 55.7151C649.759 50.8337 648.858 47.3416 647.056 45.2388C645.253 43.1361 642.249 42.0847 638.044 42.0847C633.914 42.0847 630.947 43.1361 629.145 45.2388C627.342 47.3416 626.441 50.8337 626.441 55.7151C626.441 60.5965 627.342 64.0886 629.145 66.1913C630.947 68.2941 633.914 69.3455 638.044 69.3455ZM696.711 83.5391C692.43 83.5391 688.375 83.2387 684.545 82.6379C680.715 82.0371 677.673 81.2861 675.42 80.3849V66.5293C678.049 67.6557 681.09 68.5194 684.545 69.1202C687.999 69.721 691.078 70.0213 693.782 70.0213C697.011 70.0213 699.339 69.8711 700.766 69.5708C702.268 69.2704 703.019 68.4443 703.019 67.0925C703.019 65.5905 701.817 64.4641 699.414 63.7131C697.011 62.9621 693.707 61.8732 689.501 60.4463C684.62 58.719 680.902 56.7289 678.349 54.476C675.871 52.1479 674.632 48.7309 674.632 44.225C674.632 38.9681 676.584 34.9503 680.489 32.1717C684.47 29.318 690.778 27.8911 699.414 27.8911C702.794 27.8911 706.135 28.1539 709.44 28.6796C712.744 29.2053 715.448 29.8061 717.55 30.482V44.1124C715.448 43.1361 713.044 42.4226 710.341 41.9721C707.637 41.5215 705.197 41.2962 703.019 41.2962C700.24 41.2962 697.875 41.4839 695.922 41.8594C694.045 42.1598 693.106 42.9483 693.106 44.225C693.106 45.6519 694.157 46.6657 696.26 47.2665C698.363 47.7922 701.404 48.6934 705.384 49.97C709.59 51.2467 712.857 52.636 715.185 54.138C717.513 55.5649 719.165 57.2921 720.141 59.3198C721.118 61.3475 721.606 63.9008 721.606 66.9799C721.606 72.3118 719.503 76.4047 715.297 79.2585C711.092 82.1122 704.896 83.5391 696.711 83.5391ZM270.162 184.539C264.98 184.539 260.549 183.713 256.87 182.061C253.19 180.409 250.373 177.705 248.421 173.95C246.468 170.12 245.492 165.013 245.492 158.63C245.492 152.172 246.619 146.765 248.872 142.409C251.124 137.978 254.204 134.636 258.109 132.383C262.089 130.055 266.632 128.891 271.739 128.891C274.518 128.891 276.996 129.191 279.174 129.792C281.427 130.393 283.529 131.294 285.482 132.496V107.488H303.618V183.413H287.96L286.946 178.907C284.769 180.784 282.328 182.211 279.624 183.187C276.921 184.088 273.767 184.539 270.162 184.539ZM275.344 171.359C279.324 171.359 282.703 170.008 285.482 167.304V145.676C282.929 143.348 279.662 142.184 275.682 142.184C271.852 142.184 268.923 143.648 266.895 146.577C264.943 149.431 263.966 153.486 263.966 158.743C263.966 163.849 264.905 167.229 266.783 168.881C268.735 170.533 271.589 171.359 275.344 171.359ZM342.582 184.539C333.27 184.539 325.798 182.249 320.165 177.668C314.533 173.011 311.717 166.027 311.717 156.715C311.717 148.229 314.045 141.47 318.701 136.438C323.357 131.407 330.341 128.891 339.653 128.891C348.139 128.891 354.711 131.069 359.367 135.425C364.023 139.78 366.351 145.638 366.351 152.998V162.573H328.501C329.327 166.102 331.242 168.581 334.246 170.008C337.325 171.359 341.493 172.035 346.75 172.035C349.679 172.035 352.645 171.772 355.649 171.247C358.728 170.721 361.282 170.045 363.309 169.219V181.047C360.756 182.249 357.714 183.112 354.185 183.638C350.655 184.239 346.788 184.539 342.582 184.539ZM328.501 152.097H350.58V149.731C350.58 147.102 349.792 145.037 348.215 143.535C346.637 141.958 343.971 141.17 340.217 141.17C335.861 141.17 332.819 142.071 331.092 143.873C329.365 145.601 328.501 148.342 328.501 152.097ZM399.775 183.413V110.867H435.485C441.267 110.867 446.036 112.031 449.791 114.36C453.546 116.612 456.325 119.692 458.127 123.597C460.004 127.502 460.943 131.895 460.943 136.776C460.943 141.733 459.892 146.126 457.789 149.956C455.686 153.786 452.682 156.79 448.777 158.968C444.947 161.071 440.366 162.122 435.034 162.122H417.912V183.413H399.775ZM417.912 148.154H430.979C434.809 148.154 437.663 147.102 439.54 145C441.493 142.897 442.469 140.118 442.469 136.664C442.469 132.909 441.568 130.018 439.765 127.99C438.038 125.887 435.297 124.836 431.542 124.836H417.912V148.154ZM468.09 183.413V130.018H485.325L485.889 134.974C488.217 133.547 491.108 132.271 494.562 131.144C498.017 129.942 501.471 129.191 504.926 128.891V142.521C502.973 142.747 500.796 143.122 498.392 143.648C496.064 144.099 493.811 144.662 491.634 145.338C489.531 146.014 487.728 146.727 486.226 147.478V183.413H468.09ZM537.387 184.539C527.099 184.539 519.514 182.173 514.632 177.442C509.751 172.636 507.31 165.727 507.31 156.715C507.31 147.778 509.751 140.907 514.632 136.101C519.589 131.294 527.174 128.891 537.387 128.891C547.676 128.891 555.26 131.294 560.142 136.101C565.098 140.907 567.577 147.778 567.577 156.715C567.577 165.727 565.136 172.636 560.255 177.442C555.373 182.173 547.751 184.539 537.387 184.539ZM537.387 170.345C541.593 170.345 544.597 169.294 546.399 167.191C548.201 165.089 549.102 161.596 549.102 156.715C549.102 151.834 548.201 148.342 546.399 146.239C544.597 144.136 541.593 143.085 537.387 143.085C533.257 143.085 530.29 144.136 528.488 146.239C526.686 148.342 525.784 151.834 525.784 156.715C525.784 161.596 526.686 165.089 528.488 167.191C530.29 169.294 533.257 170.345 537.387 170.345ZM598.744 184.539C592.135 184.539 587.254 182.849 584.1 179.47C581.021 176.09 579.481 171.434 579.481 165.502V143.761H572.272V130.018H579.481V118.865L597.617 114.022V130.018H610.572L609.783 143.761H597.617V164.262C597.617 166.816 598.256 168.618 599.533 169.67C600.809 170.646 602.724 171.134 605.278 171.134C607.455 171.134 609.671 170.758 611.924 170.008V182.286C608.394 183.788 604.001 184.539 598.744 184.539ZM647.523 184.539C638.211 184.539 630.739 182.249 625.106 177.668C619.474 173.011 616.658 166.027 616.658 156.715C616.658 148.229 618.986 141.47 623.642 136.438C628.298 131.407 635.282 128.891 644.594 128.891C653.08 128.891 659.652 131.069 664.308 135.425C668.964 139.78 671.292 145.638 671.292 152.998V162.573H633.442C634.268 166.102 636.183 168.581 639.187 170.008C642.266 171.359 646.434 172.035 651.691 172.035C654.62 172.035 657.586 171.772 660.59 171.247C663.669 170.721 666.223 170.045 668.25 169.219V181.047C665.697 182.249 662.655 183.112 659.126 183.638C655.596 184.239 651.729 184.539 647.523 184.539ZM633.442 152.097H655.521V149.731C655.521 147.102 654.733 145.037 653.155 143.535C651.578 141.958 648.912 141.17 645.157 141.17C640.802 141.17 637.76 142.071 636.033 143.873C634.306 145.601 633.442 148.342 633.442 152.097ZM699.791 184.539C695.51 184.539 691.455 184.239 687.625 183.638C683.795 183.037 680.753 182.286 678.5 181.385V167.529C681.129 168.656 684.17 169.519 687.625 170.12C691.079 170.721 694.158 171.021 696.862 171.021C700.091 171.021 702.419 170.871 703.846 170.571C705.348 170.27 706.099 169.444 706.099 168.093C706.099 166.591 704.897 165.464 702.494 164.713C700.091 163.962 696.787 162.873 692.581 161.446C687.7 159.719 683.983 157.729 681.429 155.476C678.951 153.148 677.712 149.731 677.712 145.225C677.712 139.968 679.664 135.95 683.569 133.172C687.55 130.318 693.858 128.891 702.494 128.891C705.874 128.891 709.216 129.154 712.52 129.68C715.824 130.205 718.528 130.806 720.631 131.482V145.112C718.528 144.136 716.125 143.423 713.421 142.972C710.718 142.521 708.277 142.296 706.099 142.296C703.32 142.296 700.955 142.484 699.002 142.859C697.125 143.16 696.186 143.948 696.186 145.225C696.186 146.652 697.237 147.666 699.34 148.266C701.443 148.792 704.484 149.693 708.465 150.97C712.67 152.247 715.937 153.636 718.265 155.138C720.593 156.565 722.245 158.292 723.222 160.32C724.198 162.347 724.686 164.901 724.686 167.98C724.686 173.312 722.583 177.405 718.378 180.258C714.172 183.112 707.977 184.539 699.791 184.539ZM754.185 184.539C747.576 184.539 742.695 182.849 739.54 179.47C736.461 176.09 734.922 171.434 734.922 165.502V143.761H727.712V130.018H734.922V118.865L753.058 114.022V130.018H766.013L765.224 143.761H753.058V164.262C753.058 166.816 753.697 168.618 754.973 169.67C756.25 170.646 758.165 171.134 760.718 171.134C762.896 171.134 765.112 170.758 767.364 170.008V182.286C763.835 183.788 759.442 184.539 754.185 184.539ZM802.175 184.539C791.887 184.539 784.302 182.173 779.42 177.442C774.539 172.636 772.098 165.727 772.098 156.715C772.098 147.778 774.539 140.907 779.42 136.101C784.377 131.294 791.962 128.891 802.175 128.891C812.464 128.891 820.049 131.294 824.93 136.101C829.887 140.907 832.365 147.778 832.365 156.715C832.365 165.727 829.924 172.636 825.043 177.442C820.161 182.173 812.539 184.539 802.175 184.539ZM802.175 170.345C806.381 170.345 809.385 169.294 811.187 167.191C812.989 165.089 813.891 161.596 813.891 156.715C813.891 151.834 812.989 148.342 811.187 146.239C809.385 144.136 806.381 143.085 802.175 143.085C798.045 143.085 795.078 144.136 793.276 146.239C791.474 148.342 790.573 151.834 790.573 156.715C790.573 161.596 791.474 165.089 793.276 167.191C795.078 169.294 798.045 170.345 802.175 170.345Z" fill="#2A2D33"/>
</svg>
